<?xml version="1.0" standalone="no"?><!DOCTYPE svg PUBLIC "-//W3C//DTD SVG 1.1//EN" "http://www.w3.org/Graphics/SVG/1.1/DTD/svg11.dtd"><svg t="1658665648423" class="icon" viewBox="0 0 1024 1024" version="1.1" xmlns="http://www.w3.org/2000/svg" p-id="3541" xmlns:xlink="http://www.w3.org/1999/xlink" width="200" height="200"><defs><style type="text/css"></style></defs><path d="M179.013818 0h665.972364c62.231273 0 84.805818 6.516364 107.566545 18.618182 22.807273 12.194909 40.634182 30.068364 52.782546 52.829091 12.194909 22.760727 18.664727 45.335273 18.664727 107.52v666.065454c0 62.184727-6.516364 84.759273-18.618182 107.52a126.882909 126.882909 0 0 1-52.829091 52.782546c-22.760727 12.194909-45.335273 18.664727-107.52 18.664727H178.920727c-62.184727 0-84.759273-6.516364-107.52-18.618182A126.882909 126.882909 0 0 1 18.618182 952.506182C6.469818 929.792 0 907.217455 0 845.032727V178.920727c0-62.184727 6.516364-84.759273 18.618182-107.52A126.882909 126.882909 0 0 1 71.493818 18.618182C94.208 6.469818 116.782545 0 178.967273 0z" fill="#00CB9C" p-id="3542" data-spm-anchor-id="a313x.7781069.0.i0"></path><path d="M302.871273 526.801455c7.121455 5.073455 13.358545 11.310545 18.432 18.478545l150.295272 212.898909L264.610909 1024 178.967273 1024c-62.184727 0-84.759273-6.516364-107.52-18.618182A126.882909 126.882909 0 0 1 18.618182 952.506182C6.469818 929.792 0 907.217455 0 845.032727v-22.481454l195.816727-277.271273a76.8 76.8 0 0 1 107.054546-18.478545z" fill="#FFFFFF" opacity=".599" p-id="3543"></path><path d="M925.277091 300.683636c4.980364 3.863273 9.495273 8.378182 13.405091 13.358546L1024 423.610182v421.376c0 62.231273-6.516364 84.805818-18.618182 107.566545a126.882909 126.882909 0 0 1-52.829091 52.782546c-22.760727 12.194909-45.335273 18.664727-107.52 18.664727H264.657455L817.477818 313.995636a76.8 76.8 0 0 1 107.799273-13.405091z" fill="#FFFFFF" opacity=".795" p-id="3544"></path><path d="M256 256m-102.4 0a102.4 102.4 0 1 0 204.8 0 102.4 102.4 0 1 0-204.8 0Z" fill="#FFFFFF" p-id="3545"></path></svg>